HIERARCHY
ROOT Hips
{
  OFFSET 33.8866 95.6011 26.7354
  CHANNELS 6 Xposition Yposition Zposition Zrotation Xrotation Yrotation
  JOINT spine
  {
    OFFSET 0 8.13249 0.467659
    CHANNELS 3 Zrotation Xrotation Yrotation
    JOINT spine1
    {
      OFFSET 0 10.3498 0
      CHANNELS 3 Zrotation Xrotation Yrotation
      JOINT spine2
      {
        OFFSET 0 9.91699 0
        CHANNELS 3 Zrotation Xrotation Yrotation
        JOINT Neck
        {
          OFFSET 0 25.461 1.2139
          CHANNELS 3 Zrotation Xrotation Yrotation
          JOINT Head
          {
            OFFSET 0 7.69245 0
            CHANNELS 3 Zrotation Xrotation Yrotation
            End Site
            {
              OFFSET 0 18.62 -6.14063
            }
          }
        }
        JOINT RightShoulder
        {
          OFFSET -4.17575 10.7096 -0.581445
          CHANNELS 3 Zrotation Xrotation Yrotation
          JOINT RightArm
          {
            OFFSET 0 14.0466 0
            CHANNELS 3 Zrotation Xrotation Yrotation
            JOINT RightArmRoll
            {
              OFFSET 0 7.09098 0
              CHANNELS 3 Zrotation Xrotation Yrotation
              JOINT RightForeArm
              {
                OFFSET 0 20.6535 0
                CHANNELS 3 Zrotation Xrotation Yrotation
                JOINT RightForeArmRoll
                {
                  OFFSET 0 7.95718 0
                  CHANNELS 3 Zrotation Xrotation Yrotation
                  JOINT RightHand
                  {
                    OFFSET 0 15.9683 0
                    CHANNELS 3 Zrotation Xrotation Yrotation
                    End Site
                    {
                      OFFSET 0 0 0
                    }
                  }
                }
              }
            }
          }
        }
        JOINT LeftShoulder
        {
          OFFSET 4.17575 10.7096 -0.581445
          CHANNELS 3 Zrotation Xrotation Yrotation
          JOINT LeftArm
          {
            OFFSET 0 14.0466 0
            CHANNELS 3 Zrotation Xrotation Yrotation
            JOINT LeftArmRoll
            {
              OFFSET 0 7.09098 0
              CHANNELS 3 Zrotation Xrotation Yrotation
              JOINT LeftForeArm
              {
                OFFSET 0 20.6535 0
                CHANNELS 3 Zrotation Xrotation Yrotation
                JOINT LeftForeArmRoll
                {
                  OFFSET 0 7.95718 0
                  CHANNELS 3 Zrotation Xrotation Yrotation
                  JOINT LeftHand
                  {
                    OFFSET 0 15.9683 0
                    CHANNELS 3 Zrotation Xrotation Yrotation
                    End Site
                    {
                      OFFSET 0 0 0
                    }
                  }
                }
              }
            }
          }
        }
      }
    }
  }
  JOINT RightUpLeg
  {
    OFFSET -7.20834 -1.32182 -1.10884
    CHANNELS 3 Zrotation Xrotation Yrotation
    JOINT RightUpLegRoll
    {
      OFFSET 0 18.7238 0
      CHANNELS 3 Zrotation Xrotation Yrotation
      JOINT RightLeg
      {
        OFFSET 0 -23.1866 0
        CHANNELS 3 Zrotation Xrotation Yrotation
        JOINT RightLegRoll
        {
          OFFSET 0 23.2624 0
          CHANNELS 3 Zrotation Xrotation Yrotation
          JOINT RightFoot
          {
            OFFSET 0 19.3621 0
            CHANNELS 3 Zrotation Xrotation Yrotation
            JOINT RightToeBase
            {
              OFFSET 0 16.1857 0
              CHANNELS 3 Zrotation Xrotation Yrotation
              End Site
              {
                OFFSET 0.00686052 7.83862 -0.903522
              }
            }
          }
        }
      }
    }
  }
  JOINT LeftUpLeg
  {
    OFFSET 7.20834 -1.32182 -1.10884
    CHANNELS 3 Zrotation Xrotation Yrotation
    JOINT LeftUpLegRoll
    {
      OFFSET 0 18.7239 0
      CHANNELS 3 Zrotation Xrotation Yrotation
      JOINT LeftLeg
      {
        OFFSET 0 23.1865 0
        CHANNELS 3 Zrotation Xrotation Yrotation
        JOINT LeftLegRoll
        {
          OFFSET 0 23.4775 0
          CHANNELS 3 Zrotation Xrotation Yrotation
          JOINT LeftFoot
          {
            OFFSET 0 19.147 0
            CHANNELS 3 Zrotation Xrotation Yrotation
            JOINT LeftToeBase
            {
              OFFSET 0 16.1857 0
              CHANNELS 3 Zrotation Xrotation Yrotation
              End Site
              {
                OFFSET -0.0307459 7.83863 -0.903522
              }
            }
          }
        }
      }
    }
  }
}
MOTION
Frames: 11
Frame Time: 0.00208333
59.4029 96.5489 17.028 2.55824 -0.965834 44.0962 0.247552 -0.96202 0.845026 0.501137 2.0829 1.66185 0.481679 3.72765 1.6536 -5.85484 -7.19699 7.81608 -2.76807 3.02165 7.1958 42.4693 -8.07642 -4.51656 -119.942 48.861 -121.485 -4.98505e-006 -6.04806e-007 -6.48571e-006 -3.92787 45.7831 0.383021 -3.47372e-006 -3.64616e-006 -2.99998 8.02905 -4.95145 0.697661 -58.4092 -19.5618 12.3861 -108.286 25.6809 -3.19765 -1.19319e-006 6.21434e-007 4.93255e-006 -9.24334 2.63537 1.02121 4.54043e-006 2.53498e-007 3.00802 -8.02899 -4.95146 -0.69767 171.758 -1.1009 7.23689 -180 7.01528e-015 178.843 176.044 27.5353 -179.868 -3.40134e-006 -2.10687e-006 0.523182 -21.4311 71.0634 22.49 7.92142 38.7028 0.841022 -179.441 4.98902 3.49214 4.54188e-006 -4.6773e-006 -0.960294 -0.277265 -7.43258 0.270521 1.73375e-006 -1.6257e-006 0.0278724 16.7477 66.371 -18.3009 -8.12756 25.2331 3.48393 
59.4071 96.5437 17.0545 2.53476 -0.959818 44.191 0.241413 -0.963639 0.84688 0.488892 2.0795 1.6662 0.469367 3.72425 1.65842 -5.9302 -7.24999 7.79106 -2.6566 3.04364 7.17553 42.1351 -8.15186 -4.56911 -119.775 48.7042 -121.833 -4.98505e-006 -6.04806e-007 -6.48571e-006 -4.12498 44.8045 0.460373 -3.47372e-006 -3.64616e-006 -2.99998 8.02905 -4.95145 0.697661 -58.4812 -19.5582 12.3754 -108.247 25.6596 -3.14321 -1.19319e-006 6.21434e-007 4.93255e-006 -9.27604 2.71063 1.02522 4.54043e-006 2.53498e-007 3.00799 -8.02899 -4.95146 -0.69767 171.761 -1.03768 7.25154 -180 7.01528e-015 178.843 176.023 27.631 -179.863 -3.40134e-006 -2.10687e-006 0.522205 -21.39 71.0216 22.4431 7.92165 38.8218 0.833138 -179.42 5.03396 3.48464 4.54188e-006 -4.6773e-006 -0.959146 -0.272882 -7.46207 0.27238 1.73375e-006 -1.6257e-006 0.0286126 16.72 66.3606 -18.2945 -8.12756 25.2331 3.48393 
59.4155 96.5358 17.0815 2.51205 -0.953297 44.2864 0.235074 -0.965211 0.848849 0.476245 2.07619 1.67081 0.456649 3.72094 1.66349 -6.00747 -7.30301 7.76506 -2.54367 3.06547 7.15423 41.7979 -8.22892 -4.62399 -119.62 48.5465 -122.195 -4.98505e-006 -6.04805e-007 -6.48571e-006 -4.29201 43.8242 0.521409 -3.47372e-006 -3.64616e-006 -2.99998 8.02905 -4.95145 0.697661 -58.5546 -19.5538 12.3641 -108.208 25.639 -3.09145 -1.19319e-006 6.21434e-007 4.93255e-006 -9.3077 2.78429 1.02918 4.54043e-006 2.53498e-007 3.00797 -8.02899 -4.95146 -0.69767 171.764 -0.97553 7.26624 -180 7.01528e-015 178.842 176.002 27.7255 -179.858 -3.40134e-006 -2.10687e-006 0.5214 -21.3506 70.9815 22.3985 7.92192 38.9382 0.825368 -179.4 5.07815 3.47853 4.54188e-006 -4.6773e-006 -0.957971 -0.267581 -7.49103 0.274347 1.73375e-006 -1.6257e-006 0.0293611 16.6914 66.3501 -18.288 -8.12756 25.2331 3.48393 
59.4192 96.5365 17.1053 2.4903 -0.946277 44.3828 0.228499 -0.9667 0.850938 0.463128 2.07306 1.6757 0.443457 3.71781 1.66881 -6.08676 -7.35609 7.73786 -2.42925 3.08678 7.13166 41.4581 -8.30752 -4.68128 -119.478 48.3869 -122.574 -4.98505e-006 -6.04806e-007 -6.48571e-006 -4.42648 42.8422 0.565807 -3.47372e-006 -3.64616e-006 -2.99998 8.02905 -4.95145 0.697661 -58.6297 -19.5488 12.3521 -108.167 25.6191 -3.0427 -1.19319e-006 6.21434e-007 4.93255e-006 -9.33819 2.8563 1.03302 4.54043e-006 2.53498e-007 3.00794 -8.02899 -4.95146 -0.69767 171.766 -0.914843 7.281 -180 7.01527e-015 178.841 175.983 27.8186 -179.853 -3.40134e-006 -2.10687e-006 0.52078 -21.313 70.9433 22.3563 7.92225 39.0518 0.817638 -179.381 5.12116 3.47404 4.54188e-006 -4.6773e-006 -0.95677 -0.261184 -7.51925 0.276433 1.73375e-006 -1.6257e-006 0.0301173 16.6617 66.3395 -18.2814 -8.12756 25.2331 3.48393 
59.4253 96.5383 17.1255 2.4697 -0.938761 44.4802 0.221655 -0.96807 0.853155 0.44947 2.07018 1.68087 0.429722 3.71493 1.67439 -6.16818 -7.40922 7.70929 -2.31329 3.10722 7.10761 41.116 -8.38758 -4.74103 -119.348 48.2245 -122.969 -4.98505e-006 -6.04806e-007 -6.48571e-006 -4.52596 41.8588 0.593243 -3.47372e-006 -3.64616e-006 -2.99998 8.02905 -4.95145 0.697661 -58.7064 -19.5431 12.3396 -108.125 25.5999 -2.9973 -1.19319e-006 6.21434e-007 4.93255e-006 -9.36739 2.92663 1.03673 4.54043e-006 2.53498e-007 3.00791 -8.02899 -4.95146 -0.69767 171.767 -0.856 7.29586 -180 7.01527e-015 178.84 175.964 27.9103 -179.849 -3.40134e-006 -2.10687e-006 0.520363 -21.2774 70.9075 22.3168 7.92268 39.1623 0.809877 -179.364 5.16258 3.47138 4.54188e-006 -4.6773e-006 -0.955544 -0.253511 -7.5465 0.278654 1.73375e-006 -1.6257e-006 0.0308808 16.6308 66.3287 -18.2749 -8.12756 25.2331 3.48393 
59.4327 96.5234 17.1497 2.45044 -0.930754 44.579 0.214507 -0.969282 0.855505 0.435203 2.06763 1.68636 0.415374 3.71238 1.68024 -6.25185 -7.46244 7.67915 -2.19576 3.12644 7.08186 40.772 -8.46902 -4.80332 -119.232 48.0583 -123.38 -4.98505e-006 -6.04806e-007 -6.48571e-006 -4.58805 40.874 0.603384 -3.47372e-006 -3.64616e-006 -2.99998 8.02905 -4.95145 0.697661 -58.785 -19.5366 12.3264 -108.081 25.5813 -2.95559 -1.19319e-006 6.21434e-007 4.93255e-006 -9.39516 2.99527 1.04026 4.54043e-006 2.53498e-007 3.00788 -8.02899 -4.95146 -0.69767 171.767 -0.799386 7.31084 -180 7.01527e-015 178.84 175.946 28.0002 -179.844 -3.40134e-006 -2.10687e-006 0.520164 -21.244 70.874 22.2804 7.9232 39.2697 0.802011 -179.349 5.202 3.47078 4.54188e-006 -4.6773e-006 -0.954296 -0.244383 -7.57257 0.281022 1.73375e-006 -1.6257e-006 0.0316512 16.5985 66.3179 -18.2682 -8.12756 25.2331 3.48393 
59.4318 96.5148 17.1726 2.4323 -0.921623 44.6786 0.207044 -0.970493 0.858031 0.420308 2.06509 1.69224 0.400392 3.70984 1.68647 -6.33819 -7.51599 7.64765 -2.07593 3.14561 7.05468 40.4198 -8.55557 -4.87145 -119.131 47.8899 -123.829 -4.98505e-006 -6.04806e-007 -6.48571e-006 -4.60967 39.8817 0.59161 -3.47372e-006 -3.64616e-006 -2.99998 8.02905 -4.95145 0.697661 -58.8663 -19.5286 12.312 -108.036 25.5627 -2.91795 -1.19319e-006 6.21434e-007 4.93255e-006 -9.42139 3.06312 1.0438 4.54043e-006 2.53498e-007 3.00784 -8.02899 -4.95146 -0.69767 171.767 -0.744191 7.32631 -180 7.01527e-015 178.839 175.929 28.0893 -179.84 -3.40134e-006 -2.10687e-006 0.520309 -21.2132 70.8437 22.2476 7.92388 39.3743 0.793843 -179.335 5.24088 3.47252 4.54188e-006 -4.6773e-006 -0.952958 -0.233878 -7.59834 0.283574 1.73375e-006 -1.6257e-006 0.0324342 16.5637 66.3066 -18.2614 -8.12756 25.2331 3.48393 
59.4378 96.5151 17.1969 2.41493 -0.910904 44.7783 0.199298 -0.971858 0.86076 0.404849 2.06224 1.69856 0.384842 3.70699 1.69312 -6.42739 -7.57006 7.61516 -1.95333 3.16598 7.02655 40.0544 -8.65007 -4.94779 -119.044 47.7203 -124.327 -4.98505e-006 -6.04806e-007 -6.48571e-006 -4.59328 38.8774 0.556243 -3.47372e-006 -3.64616e-006 -2.99998 8.02905 -4.95145 0.697661 -58.9509 -19.5182 12.2956 -107.989 25.5435 -2.88426 -1.19319e-006 6.21434e-007 4.93255e-006 -9.44616 3.1309 1.04754 4.54043e-006 2.53498e-007 3.0078 -8.02899 -4.95146 -0.69767 171.765 -0.689378 7.3425 -180 7.01527e-015 178.838 175.913 28.1786 -179.835 -3.40134e-006 -2.10687e-006 0.520873 -21.1852 70.8166 22.2187 7.92473 39.4765 0.785313 -179.324 5.2808 3.47656 4.54188e-006 -4.6773e-006 -0.951477 -0.222257 -7.62473 0.286324 1.73375e-006 -1.6257e-006 0.0332344 16.5259 66.2948 -18.2543 -8.12756 25.2331 3.48393 
59.4487 96.5164 17.224 2.39824 -0.898859 44.8781 0.191298 -0.973341 0.863668 0.388886 2.05916 1.70527 0.368782 3.70391 1.70015 -6.51919 -7.62453 7.58174 -1.82826 3.18735 6.99749 39.678 -8.75107 -5.03098 -118.972 47.5482 -124.867 -4.98505e-006 -6.04806e-007 -6.48571e-006 -4.54465 37.8632 0.501167 -3.47372e-006 -3.64616e-006 -2.99998 8.02905 -4.95145 0.697661 -59.0383 -19.5058 12.2777 -107.94 25.5241 -2.8541 -1.19319e-006 6.21434e-007 4.93255e-006 -9.4696 3.19827 1.05144 4.54043e-006 2.53498e-007 3.00777 -8.02899 -4.95146 -0.69767 171.762 -0.634989 7.35924 -180 7.01526e-015 178.837 175.897 28.2679 -179.831 -3.40134e-006 -2.10687e-006 0.521794 -21.1595 70.7924 22.193 7.92571 39.5762 0.776555 -179.314 5.32147 3.48261 4.54188e-006 -4.6773e-006 -0.949881 -0.209622 -7.65154 0.289246 1.73375e-006 -1.6257e-006 0.03405 16.4854 66.2825 -18.2471 -8.12756 25.2331 3.48393 
59.4417 96.4522 17.2425 2.38218 -0.885747 44.9782 0.183074 -0.974908 0.866734 0.372476 2.05591 1.71233 0.352272 3.70066 1.70751 -6.61336 -7.67928 7.54745 -1.70104 3.20951 6.96758 39.2926 -8.85712 -5.11967 -118.916 47.3726 -125.439 -4.98505e-006 -6.04805e-007 -6.48571e-006 -4.46921 36.8417 0.430021 -3.47372e-006 -3.64616e-006 -2.99998 8.02905 -4.95145 0.697661 -59.1281 -19.4918 12.2585 -107.89 25.5048 -2.82708 -1.19319e-006 6.21434e-007 4.93255e-006 -9.49185 3.26487 1.05544 4.54043e-006 2.53498e-007 3.00773 -8.02899 -4.95146 -0.69767 171.758 -0.581067 7.37637 -180 7.01526e-015 178.836 175.881 28.3568 -179.826 -3.40134e-006 -2.10687e-006 0.523011 -21.1358 70.7705 22.1702 7.92678 39.6736 0.767699 -179.306 5.36259 3.4904 4.54188e-006 -4.6773e-006 -0.948195 -0.196072 -7.67857 0.292315 1.73375e-006 -1.6257e-006 0.0348791 16.443 66.2699 -18.2396 -8.12756 25.2331 3.48393 
59.4411 96.4577 17.2611 2.36667 -0.871825 45.0786 0.174656 -0.976524 0.869935 0.35568 2.05257 1.71968 0.335371 3.69732 1.71516 -6.70965 -7.73421 7.51234 -1.57198 3.23225 6.93684 38.9005 -8.96678 -5.21249 -118.875 47.1926 -126.033 -4.98505e-006 -6.04805e-007 -6.48571e-006 -4.37208 35.815 0.346218 -3.47372e-006 -3.64616e-006 -2.99998 8.02905 -4.95145 0.697661 -59.2197 -19.4765 12.2383 -107.838 25.4857 -2.80279 -1.19319e-006 6.21434e-007 4.93255e-006 -9.51305 3.33036 1.05949 4.54043e-006 2.53498e-007 3.0077 -8.02899 -4.95146 -0.69767 171.753 -0.527652 7.39373 -180 7.01526e-015 178.835 175.867 28.4452 -179.822 -3.40134e-006 -2.10687e-006 0.524461 -21.1137 70.7507 22.1495 7.9279 39.7686 0.758881 -179.3 5.4039 3.49964 4.54188e-006 -4.6773e-006 -0.946445 -0.181708 -7.70563 0.295507 1.73375e-006 -1.6257e-006 0.0357196 16.399 66.2571 -18.2321 -8.12756 25.2331 3.48393 
